<?xml version="1.0" encoding="UTF-8"?> <!-- Generator: Adobe Illustrator 16.0.0, SVG Export Plug-In . SVG Version: 6.00 Build 0) --> <svg xmlns="http://www.w3.org/2000/svg" xmlns:xlink="http://www.w3.org/1999/xlink" x="0px" y="0px" width="422.906px" height="457.77px" viewBox="0 0 422.906 457.77" xml:space="preserve"> <g id="BACKGROUND" display="none"> <rect x="-96.759" y="-63.979" display="inline" fill="#CCF8FF" width="750" height="500"></rect> </g> <g id="OBJECTS"> <g> <image overflow="visible" opacity="0.75" width="450" height="351" xlink:href="918CEDE8.png" transform="matrix(1 0 0 1 -5.7588 69.0205)"> </image> <g> <g> <g> <g> <g> <g> <g> <g> <g> <polygon fill="#FCC015" points="2.799,320.416 70.693,281.221 70.693,172.423 2.799,211.623 "></polygon> </g> <polygon fill="#E5A70C" points="86.281,181.708 70.693,172.423 70.693,206.629 "></polygon> </g> </g> <polygon fill="#F7F7F7" points="7.057,317.963 7.057,213.291 70.693,176.551 86.281,185.835 70.693,210.752 19.953,325.037 "></polygon> <polygon fill="#FFFFFF" points="7.057,213.291 70.693,176.551 86.281,185.835 70.693,210.752 55.532,244.895 7.057,213.428 "></polygon> <g> <polygon fill="#FEE212" points="18.39,329.699 86.281,290.502 86.281,181.708 18.39,220.908 "></polygon> </g> </g> <g> <g> <g> <polygon fill="#F45B63" points="26.39,334.834 93.461,296.113 93.461,188.635 26.39,227.359 "></polygon> <polygon fill="#E03F4F" points="108.86,197.805 93.461,188.635 93.461,222.422 "></polygon> </g> </g> <polygon fill="#F7F7F7" points="30.596,332.402 30.596,229.006 93.461,192.709 108.86,201.879 93.461,226.5 43.337,339.396 "></polygon> <polygon fill="#FFFFFF" points="30.596,229.006 93.461,192.709 108.86,201.879 93.461,226.5 78.485,260.225 30.596,229.143 "></polygon> <g> <polygon fill="#FD787B" points="41.791,344.006 108.86,305.283 108.86,197.805 41.791,236.529 "></polygon> </g> </g> </g> <g> <g> <g> <g> <path fill="#7A8389" d="M292.733,209.313l6.775-0.043c3.023-3.5,7.043-6.779,12.094-9.699 c25.168-14.529,65.969-14.529,91.129,0c4.721,2.727,8.555,5.766,11.502,9.004l7.357-0.043l0.012,17.314v0.066 c-0.012,9.508-6.303,19.018-18.871,26.275c-25.162,14.523-65.961,14.523-91.129,0 c-12.57-7.262-18.859-16.773-18.869-26.289c0-0.031,0.002-0.063,0.002-0.09L292.733,209.313z"></path> <g> <path fill="#F41484" d="M418.415,208.549l3.176-0.018l0.012,17.314v0.066c-0.012,9.508-6.303,19.018-18.871,26.275 c-0.055,0.029-0.115,0.059-0.172,0.09v-18.471C411.368,229.609,414.669,217.891,418.415,208.549z"></path> </g> <g> <path fill="#2781C4" d="M401.849,234.135c0.244-0.102,0.475-0.217,0.711-0.328v18.471 c-14.119,8.096-33.109,11.641-51.502,10.633v-18.299C368.331,245.186,386.503,240.916,401.849,234.135z"></path> </g> <g> <path fill="#F43B90" d="M292.733,209.313l6.775-0.043c3.023-3.5,7.043-6.779,12.094-9.699 c25.168-14.529,65.969-14.529,91.129,0c4.721,2.727,8.555,5.766,11.502,9.004l4.182-0.025 c-3.746,9.342-7.047,21.061-15.855,25.258v-2.518v2.518c-0.236,0.111-0.467,0.227-0.711,0.328 c-15.346,6.781-33.518,11.051-50.791,10.477v-0.93v0.93c-14.412-0.482-28.201-4.344-39.207-12.941v-1.598v1.598 c-5.832-4.555-10.885-10.438-14.83-17.855c3.945,7.418,8.998,13.301,14.83,17.855v20.65 c-0.08-0.047-0.164-0.09-0.248-0.133c-12.57-7.262-18.859-16.773-18.869-26.289c0-0.031,0.002-0.063,0.002-0.09 L292.733,209.313z"></path> </g> <g> <path fill="#02D1AF" d="M351.058,244.611v18.299c-14.291-0.785-28.215-4.313-39.207-10.59v-20.65 C322.856,240.268,336.646,244.129,351.058,244.611z"></path> </g> <g> <path fill="#6E777F" d="M311.603,235.621c25.168,14.527,65.967,14.527,91.129,0c25.168-14.533,25.168-38.086,0-52.616 c-25.16-14.527-65.961-14.527-91.129,0C286.442,197.535,286.444,221.092,311.603,235.621z"></path> <g> <path fill="#FFB30B" d="M311.603,183.005c25.168-14.527,65.969-14.527,91.129,0c0.021,0.015,0.035,0.021,0.053,0.031 c25.111,14.53,25.1,38.063-0.053,52.584c-0.059,0.031-0.121,0.064-0.184,0.098l-45.506-26.273l-45.611-26.333 C311.491,183.077,311.548,183.042,311.603,183.005z"></path> </g> <g> <path fill="#FF399C" d="M414.882,192.746c11.99,13.918,7.943,31.273-12.15,42.875c-0.059,0.031-0.121,0.064-0.184,0.098 l-45.506-26.273L414.882,192.746z"></path> </g> <g> <path fill="#FFDD50" d="M311.603,235.621c-25.102-14.494-25.158-37.973-0.172-52.508l45.611,26.333l-45.383,26.203 C311.644,235.639,311.624,235.631,311.603,235.621z"></path> </g> <g> <path fill="#03F4D1" d="M357.042,209.445l45.506,26.273c-25.162,14.412-65.779,14.391-90.889-0.07L357.042,209.445z"></path> </g> <g> <linearGradient id="SVGID_1_" gradientUnits="userSpaceOnUse" x1="-62.4658" y1="227.9795" x2="-11.0693" y2="227.9795" gradientTransform="matrix(-1 0 0 1 340.082 0)"> <stop offset="0" style="stop-color:#2E9AFF"></stop> <stop offset="0.5401" style="stop-color:#5AB0FF"></stop> <stop offset="1" style="stop-color:#7BC0FF"></stop> </linearGradient> <path fill="url(#SVGID_1_)" d="M357.042,209.445l45.506,26.273c-14.098,8.076-33.045,11.621-51.396,10.635 L357.042,209.445z"></path> </g> </g> </g> </g> </g> </g> <g> <g> <g> <g> <polygon fill="#E3F4FF" points="269.509,77.946 274.558,81.093 269.763,83.31 "></polygon> <polygon fill="#77CFF2" points="110.037,324.857 104.877,321.643 109.36,318.539 "></polygon> <g> <g> <path fill="#FFFFFF" d="M270.211,223.945c0,1.85-1.5,4.217-3.353,5.285l-159.491,92.082 c-1.851,1.068-3.353,0.436-3.349-1.416V175.539c0-1.849,1.499-4.218,3.352-5.287l159.488-92.08 c1.853-1.065,3.353-0.437,3.353,1.418V223.945z"></path> <path fill="#77CFF2" d="M104.019,175.539v144.358c-0.003,1.852,1.499,2.484,3.349,1.416l85.873-49.582l-88.195-99.193 C104.414,173.507,104.019,174.592,104.019,175.539z"></path> <path fill="#E3F4FF" d="M266.859,78.171l-159.488,92.08c-0.907,0.521-1.718,1.356-2.325,2.286l88.195,99.193 l73.618-42.5c1.853-1.068,3.353-3.436,3.353-5.285V79.589C270.211,77.734,268.711,77.106,266.859,78.171z"></path> <path fill="#A4DCFF" d="M275.314,227.131c0,1.857-1.499,4.223-3.352,5.291l-159.489,92.082 c-1.852,1.068-3.351,0.432-3.351-1.416V178.73c0-1.854,1.499-4.221,3.351-5.287l159.489-92.078 c1.853-1.071,3.352-0.435,3.352,1.412V227.131z"></path> <polygon fill="#2E4C9B" points="269.731,222.115 114.71,311.623 114.71,183.744 269.731,94.243 "></polygon> <polygon fill="#E3F4FF" points="266.808,95.924 266.808,220.414 114.71,308.229 114.71,311.623 269.731,222.115 269.731,94.243 "></polygon> <g> <line fill="#FCEF40" x1="269.731" y1="94.243" x2="269.731" y2="222.115"></line> </g> <path fill="#FFFFFF" d="M194.937,131.886c0,1.505-1.216,3.426-2.72,4.295c-1.503,0.871-2.719,0.352-2.719-1.15 c0-1.504,1.216-3.43,2.719-4.294C193.721,129.868,194.937,130.381,194.937,131.886z"></path> </g> </g> </g> <g> <polygon fill="#60BCEA" points="386.913,299.438 391.8,302.311 391.8,296.57 "></polygon> <polygon fill="#E2E2E2" points="112.36,331.383 112.36,325.721 120.062,325.908 "></polygon> <g> <path fill="#EFEFEF" d="M224.522,396.721c1.604,0.924,4.403,0.809,6.256-0.26l159.488-92.084 c1.85-1.068,2.053-2.684,0.447-3.611l-111.08-63.758c-1.601-0.93-4.404-0.811-6.252,0.256l-159.492,92.08 c-1.851,1.072-2.053,2.682-0.451,3.609L224.522,396.721z"></path> <path fill="#60BCEA" d="M390.714,300.766l-111.08-63.758c-1.601-0.93-4.404-0.811-6.252,0.256l-71.505,41.283 l25.452,118.789c1.202-0.014,2.459-0.303,3.451-0.875l159.488-92.084C392.116,303.309,392.319,301.693,390.714,300.766z"></path> <path fill="#77CFF2" d="M113.889,329.344c-1.851,1.072-2.053,2.682-0.451,3.609l111.084,63.768 c0.748,0.43,1.758,0.627,2.806,0.615l-25.452-118.789L113.889,329.344z"></path> <path fill="#E3F4FF" d="M224.522,390.98c1.604,0.926,4.403,0.805,6.256-0.262l159.488-92.082 c1.85-1.072,2.053-2.684,0.447-3.611l-111.08-63.762c-1.601-0.926-4.404-0.809-6.252,0.258l-159.492,92.082 c-1.851,1.068-2.053,2.688-0.451,3.615L224.522,390.98z"></path> <g> <path fill="#4BB3DB" d="M312.923,317.941l3.346,1.934c0.984,0.568,0.861,1.561-0.273,2.219l-45.024,25.994 c-1.135,0.656-2.855,0.729-3.842,0.158l-3.349-1.932L312.923,317.941z"></path> <path fill="#4BB3DB" d="M262.37,345.502l-17.602-10.168c-0.987-0.564-0.864-1.563,0.273-2.221l45.026-25.986 c1.137-0.664,2.855-0.732,3.84-0.164l17.604,10.168L262.37,345.502z"></path> <g> <polygon fill="#4BB3DB" points="275.548,255.412 288.37,248.01 279.201,242.721 266.382,250.123 "></polygon> <polygon fill="#4BB3DB" points="278.929,267.35 300.397,254.955 291.231,249.662 269.763,262.061 "></polygon> <polygon fill="#4BB3DB" points="262.29,276.959 275.771,269.17 266.608,263.881 253.125,271.666 "></polygon> <polygon fill="#4BB3DB" points="245.5,286.65 258.983,278.867 249.816,273.576 236.336,281.361 "></polygon> <polygon fill="#4BB3DB" points="228.711,296.346 242.19,288.559 233.024,283.27 219.543,291.053 "></polygon> <polygon fill="#4BB3DB" points="211.917,306.039 225.401,298.254 216.233,292.961 202.752,300.744 "></polygon> <polygon fill="#4BB3DB" points="195.128,315.732 208.611,307.943 199.448,302.652 185.963,310.443 "></polygon> <polygon fill="#4BB3DB" points="178.337,325.428 191.819,317.645 182.656,312.352 169.173,320.131 "></polygon> <polygon fill="#4BB3DB" points="154.473,339.209 175.031,327.332 165.868,322.043 145.31,333.914 "></polygon> <polygon fill="#4BB3DB" points="282.218,279.207 312.312,261.838 303.147,256.543 273.05,273.918 "></polygon> <polygon fill="#4BB3DB" points="265.554,288.832 279.04,281.049 269.872,275.756 256.387,283.541 "></polygon> <polygon fill="#4BB3DB" points="248.769,298.523 262.249,290.744 253.084,285.449 239.599,293.234 "></polygon> <polygon fill="#4BB3DB" points="231.977,308.219 245.457,300.436 236.29,295.143 222.811,302.926 "></polygon> <polygon fill="#4BB3DB" points="215.187,317.91 228.668,310.127 219.503,304.834 206.019,312.617 "></polygon> <polygon fill="#4BB3DB" points="198.394,327.605 211.876,319.822 202.711,314.531 189.23,322.314 "></polygon> <polygon fill="#4BB3DB" points="166.39,346.084 195.061,329.533 185.894,324.236 157.225,340.791 "></polygon> <polygon fill="#4BB3DB" points="227.17,324.83 291.024,287.967 281.858,282.674 218.003,319.537 "></polygon> <polygon fill="#4BB3DB" points="258.908,265.018 271.733,257.615 262.566,252.324 249.745,259.729 "></polygon> <polygon fill="#4BB3DB" points="311.478,276.154 324.298,268.752 315.134,263.463 302.308,270.859 "></polygon> <polygon fill="#4BB3DB" points="294.841,285.76 307.661,278.361 298.495,273.066 285.673,280.471 "></polygon> <polygon fill="#4BB3DB" points="242.271,274.625 255.095,267.221 245.926,261.93 233.108,269.334 "></polygon> <polygon fill="#4BB3DB" points="225.633,284.23 238.453,276.826 229.292,271.537 216.468,278.939 "></polygon> <polygon fill="#4BB3DB" points="208.997,293.832 221.817,286.434 212.654,281.143 199.831,288.547 "></polygon> <polygon fill="#4BB3DB" points="192.362,303.441 205.179,296.039 196.015,290.746 183.193,298.148 "></polygon> <polygon fill="#4BB3DB" points="175.72,313.047 188.542,305.641 179.378,300.352 166.557,307.754 "></polygon> <polygon fill="#4BB3DB" points="159.083,322.652 171.907,315.252 162.741,309.957 149.919,317.363 "></polygon> <polygon fill="#4BB3DB" points="142.446,332.258 155.266,324.855 146.104,319.566 133.281,326.969 "></polygon> <polygon fill="#4BB3DB" points="210.378,334.521 223.859,326.74 214.694,321.451 201.212,329.23 "></polygon> <polygon fill="#4BB3DB" points="194.406,343.75 207.224,336.346 198.059,331.057 185.239,338.459 "></polygon> <polygon fill="#4BB3DB" points="178.377,353.004 191.199,345.598 182.031,340.305 169.208,347.707 "></polygon> </g> </g> </g> <g> <polygon fill="#107F99" points="211.045,384.641 220.619,390.158 220.619,393.35 211.045,387.789 "></polygon> <polygon fill="#279FC4" points="213.707,386.174 220.619,390.158 220.619,393.35 211.045,387.789 "></polygon> </g> <g> <polygon fill="#107F99" points="116.209,330.172 125.778,335.689 125.778,338.875 116.209,333.32 "></polygon> <polygon fill="#279FC4" points="118.868,331.701 125.778,335.689 125.778,338.875 116.209,333.32 "></polygon> </g> <g> <polygon fill="#107F99" points="127.375,336.607 136.947,342.119 136.947,345.311 127.375,339.752 "></polygon> <polygon fill="#279FC4" points="130.032,338.137 136.947,342.119 136.947,345.311 127.375,339.752 "></polygon> </g> </g> </g> </g> </g> <g> <g> <g> <g> <g> <polygon fill="#CC75DB" points="267.037,259.041 284.89,248.732 284.89,142.696 267.037,153.003 "></polygon> </g> <g> <polygon fill="#BC4AD3" points="249.183,248.732 267.042,259.041 267.042,153.003 249.187,142.696 "></polygon> </g> </g> <g> <polygon fill="#DA8CE5" points="267.041,153.003 284.897,142.696 267.041,132.386 249.175,142.696 "></polygon> </g> </g> <g> <g> <g> <linearGradient id="SVGID_2_" gradientUnits="userSpaceOnUse" x1="105.3584" y1="282.9443" x2="105.3584" y2="106.2368" gradientTransform="matrix(-1 0 0 1 340.082 0)"> <stop offset="0" style="stop-color:#495DDB"></stop> <stop offset="0.1728" style="stop-color:#4962DC"></stop> <stop offset="0.3877" style="stop-color:#4972E0"></stop> <stop offset="0.6248" style="stop-color:#498BE5"></stop> <stop offset="0.8762" style="stop-color:#49AEED"></stop> <stop offset="1" style="stop-color:#49C2F2"></stop> </linearGradient> <polygon fill="url(#SVGID_2_)" points="225.795,282.943 243.652,272.629 243.652,106.237 225.795,116.541 "></polygon> <polygon fill="#5145E5" points="207.947,272.629 225.804,282.943 225.804,116.541 207.95,106.237 "></polygon> </g> <polygon fill="#77AAFC" points="225.798,116.546 243.656,106.237 225.798,95.922 207.938,106.237 "></polygon> </g> </g> <g> <g> <g> <polygon fill="#B26ABF" points="184.556,306.494 202.415,296.188 202.415,202.287 184.556,212.598 "></polygon> </g> <g> <polygon fill="#CC75DB" points="166.704,296.188 184.562,306.494 184.562,212.598 166.708,202.287 "></polygon> </g> </g> <g> <polygon fill="#DA8CE5" points="184.556,212.6 202.415,202.287 184.562,191.977 166.702,202.287 "></polygon> </g> </g> <g> <g> <g> <polygon fill="#FF6C6C" points="184.605,306.77 202.467,296.455 202.467,202.564 184.605,212.875 "></polygon> </g> <g> <polygon fill="#FC5656" points="166.755,296.455 184.613,306.77 184.613,212.875 166.757,202.564 "></polygon> </g> </g> <g> <polygon fill="#FF9499" points="184.605,212.875 202.467,202.564 184.605,192.252 166.751,202.564 "></polygon> </g> </g> <g> <g> <g> <polygon fill="#FF399C" points="143.314,330.627 161.171,320.314 161.171,251.639 143.314,261.943 "></polygon> </g> <g> <polygon fill="#FF1F85" points="125.466,320.314 143.317,330.627 143.317,261.943 125.466,251.639 "></polygon> </g> </g> <g> <polygon fill="#FF80C6" points="143.317,261.947 161.181,251.639 143.317,241.324 125.461,251.639 "></polygon> </g> </g> </g> </g> <g> <g> <polygon fill="#FFA750" points="265.794,209.338 233.575,208.996 205.449,251.117 163.272,277.867 143.314,335.021 157.279,342.486 298.298,222.49 310.188,164.744 296.224,157.278 "></polygon> </g> <g> <polygon fill="#FFB6B6" points="233.575,208.996 233.69,209 283.276,235.268 241.615,270.721 205.494,251.051 "></polygon> </g> <g> <polygon fill="#FFB6B6" points="296.224,157.278 310.188,164.744 298.298,222.49 295.284,225.049 265.814,209.303 "></polygon> </g> <g> <polygon fill="#FF9499" points="233.69,209 265.794,209.338 265.814,209.303 295.284,225.049 283.276,235.268 "></polygon> </g> <g> <polygon fill="#FFA9A9" points="163.333,277.826 205.449,251.117 205.494,251.051 241.615,270.721 206.615,300.504 "></polygon> </g> <g> <polygon fill="#FFB6B6" points="143.314,335.021 163.272,277.867 163.333,277.826 206.615,300.504 157.279,342.486 "></polygon> </g> <g> <polygon fill="#FF6C6C" points="279.759,216.803 247.541,216.463 219.415,258.582 177.237,285.332 157.279,342.486 310.188,254.207 310.188,164.744 "></polygon> </g> </g> <g> <polygon fill="#FFCF06" points="177.191,134.624 166.57,175.615 161.042,172.504 161.042,142.297 174.162,134.592 "></polygon> <polygon fill="#FFE806" points="160.39,142.832 154.859,139.721 170.777,110.287 176.305,113.398 180.51,124.913 177.191,134.624 174.162,134.592 175.368,133.885 174.162,134.592 172.354,134.577 174.162,134.592 161.042,142.297 161.042,142.103 "></polygon> <polygon fill="#FFB30B" points="192.221,124.456 176.305,113.398 160.39,142.832 166.572,139.263 166.57,175.615 186.039,164.375 186.039,128.024 "></polygon> </g> <g> <polygon fill="#FFCF06" points="142.249,130.813 131.628,171.806 126.1,168.698 126.1,138.492 139.22,130.787 "></polygon> <polygon fill="#FFE806" points="125.447,139.023 119.917,135.912 135.834,106.481 141.363,109.589 145.568,121.104 142.249,130.813 139.22,130.787 140.425,130.079 139.22,130.787 137.411,130.765 139.22,130.787 126.1,138.492 126.1,138.296 "></polygon> <polygon fill="#FFB30B" points="157.279,120.646 141.363,109.589 125.447,139.023 131.629,135.455 131.628,171.806 151.097,160.566 151.097,124.215 "></polygon> </g> <path fill="#E0E0E0" d="M334.257,224.152c12.918,7.457,33.859,7.455,46.775,0c12.914-7.457,12.914-19.549,0-27.006 c-12.916-7.455-33.857-7.455-46.77,0C321.341,204.604,321.341,216.695,334.257,224.152z"></path> <path fill="#E0E0E0" d="M191.801,351.314c9.08,5.242,23.804,5.238,32.885,0c9.083-5.244,9.083-13.746,0-18.988 c-9.081-5.244-23.805-5.244-32.885,0C182.718,337.568,182.718,346.07,191.801,351.314z"></path> <g> <g> <g> <path fill="#303030" d="M359.972,221.51c0,0-4.863,3.035-6.777,8.566c-2.266,0.197-4.082-2.877-3.135-4.523 c0.949-1.648,4.227-6.533,4.227-6.533L359.972,221.51z"></path> <path fill="#1E1E1E" d="M354.286,219.02l5.686,2.49c0,0-0.42,0.264-1.049,0.768l-2.436-1.068c0,0-3.281,4.887-4.227,6.533 c-0.355,0.615-0.322,1.436-0.025,2.205c-1.775-0.564-2.98-2.99-2.176-4.395C351.009,223.904,354.286,219.02,354.286,219.02 z"></path> <path fill="#303030" d="M381.827,200.227c0,0,4.725-1.736,7.109,0c1.352,0.979-0.783,3.738-7.109,3.828 C378.88,203.072,381.827,200.227,381.827,200.227z"></path> <linearGradient id="SVGID_3_" gradientUnits="userSpaceOnUse" x1="-42.3252" y1="210.6494" x2="-17.5635" y2="210.6494" gradientTransform="matrix(-1 0 0 1 340.082 0)"> <stop offset="0" style="stop-color:#FFE2C4"></stop> <stop offset="1" style="stop-color:#FFB870"></stop> </linearGradient> <path fill="url(#SVGID_3_)" d="M365.892,203.074l6.875,1.102c0,0,0.021,0.629-9.578,10.461 c-6.41,4.535-5.498,8.83-5.498,8.83s12.668-6.725,20.65-14.211c7.979-7.479,2.268-11.127-0.713-10.752 c-2.98,0.381-11.33-0.672-11.33-0.672L365.892,203.074z"></path> <linearGradient id="SVGID_4_" gradientUnits="userSpaceOnUse" x1="-42.0967" y1="213.374" x2="-3.6611" y2="213.374" gradientTransform="matrix(-1 0 0 1 340.082 0)"> <stop offset="0" style="stop-color:#FFE2C4"></stop> <stop offset="1" style="stop-color:#FFB870"></stop> </linearGradient> <path fill="url(#SVGID_4_)" d="M343.743,215.242c0,0,3.547,8.682,6.703,10.328c3.154,1.643,10.168-3.293,14.666-9.578 c4.498-6.283,6.877-11.273,9.652-10.725c2.777,0.551,7.414-1.244,7.414-1.244s-0.273-3.441-4.551-3.145 c-4.279,0.299-10.186,4.35-10.186,4.35s-8.672,4.713-11,7.479s-1.348,2.611-1.348,2.611l-3.283-5.596L343.743,215.242z"></path> <g> <g> <g> <path fill="#E2E2E2" d="M372.8,197.406c0.361-0.211,0.623-0.504,0.814-0.848l-1.695,0.949 C372.413,197.463,372.765,197.428,372.8,197.406z"></path> <g> <linearGradient id="SVGID_5_" gradientUnits="userSpaceOnUse" x1="-36.126" y1="180.3545" x2="-14.4814" y2="180.3545" gradientTransform="matrix(-1 0 0 1 340.082 0)"> <stop offset="0" style="stop-color:#FFE2C4"></stop> <stop offset="1" style="stop-color:#FFB870"></stop> </linearGradient> <path fill="url(#SVGID_5_)" d="M356.907,164.634c0,0-0.066-0.679-1.902,3.393c-1.834,4.069,2.572,17.075,3.617,18.5 c1.047,1.431,13.031,13.028,15.914,8.581c-1.799-0.924,2.002-0.461,1.648-2.543 c-5.357,1.871-14.014-10.73-15.646-12.086C357.808,178.216,361.851,170.263,356.907,164.634z"></path> <g> <g> <path fill="#112F5B" d="M374.765,195.688c-4.256-6.004-13.805-3.361-13.805-3.361l-17.27,0.186 c0,0,0.145,8.996,8.096,10.955c6.725,1.656,14.395,0.871,16.404,1.801 C368.255,201.57,371.214,194.088,374.765,195.688z"></path> <g> <path fill="#164072" d="M354.874,213.746c-0.365-3.965-0.828-7.863,0.143-9.664 c0.826-1.539-0.455-6.982-0.455-6.982l-18.744,0.732c0,0-1.922,2.033,0.525,9.842 c0.5,1.592,7.814,12.756,9.4,13.703C345.163,217.793,350.478,212.723,354.874,213.746z"></path> </g> </g> <path fill="#48D4FF" d="M360.265,196.117c0,0,2.674-29.925-5.525-33.064c-8.205-3.137-15.715,4.332-18.922,11.566 c-3.201,7.239-2.068,22.888-2.094,26.24C344.972,208.602,360.579,199.838,360.265,196.117z"></path> <g> <linearGradient id="SVGID_6_" gradientUnits="userSpaceOnUse" x1="-17.9409" y1="159.9385" x2="-2.8677" y2="159.9385" gradientTransform="matrix(-1 0 0 1 340.082 0)"> <stop offset="0" style="stop-color:#FFE2C4"></stop> <stop offset="1" style="stop-color:#FFB870"></stop> </linearGradient> <path fill="url(#SVGID_6_)" d="M357.046,151.071c0,0,2.047,3.275,0.215,10.388c-1.492,5.762-1.668,7.384-4.07,7.624 c-2.406,0.248-7.594-1.381-8.305-5.947c-0.715-0.154-2.742-2.895-1.588-5.076c1.156-2.181,1.967,0.201,1.967,0.201 s-0.045-4.755,3.316-6.485C351.942,150.043,357.046,151.071,357.046,151.071z"></path> <path fill="#70380F" d="M349.146,156.785c0.012-0.276,2.566,3.367,6.67,2.187c-1.412-0.424-1.736-1.418-1.736-1.418 s1.373,1.836,3.729,1.215c-1.002-0.417-1.488-0.866-1.488-0.866s1.563,0.826,3.063,0.229 c-0.945-0.407-0.805-1.028-0.805-1.028s0.836,0.834,2.457-0.584c-0.66-0.083-0.594-3.117-2.979-5.295 c-2.385-2.185-4.865-4.345-8.063-3.81c0.783-0.813,0.67-1,1.799-0.821c-1.277-0.71-4.08-0.157-4.877,1.023 c-2.484-0.952-5.568,2.814-4.025,11.857c0.027-0.229,0.236-1.702,1.117-1.974c0.875-0.282,1.613,1.442,1.412,1.875 c-0.193,0.442-0.293,3.016-0.293,3.016l1.135,0.596c0,0-0.354-2.242,0.451-2.916 C347.524,159.392,348.995,160.229,349.146,156.785z"></path> <path fill="#FF66BA" d="M357.171,150.423c0,0-3.391-6.212-11.717-4.146c-8.328,2.07-2.977,14.054-2.977,14.054 S348.476,151.093,357.171,150.423z"></path> <path fill="#FF399C" d="M358.714,151.922c0,0-7.352,0.738-11.045,4.387c-3.693,3.652-3.447,6.331-3.447,6.331 s-1.697-0.127-1.926-2.345c-0.225-2.212,1.004-3.834,1.682-5.067c0.672-1.236,4.531-5.994,11.531-6.146 C359.487,148.881,358.714,151.922,358.714,151.922z"></path> </g> </g> </g> </g> </g> </g> </g> </g> <g> <g> <polygon fill="#A0A0A0" points="357.966,218.146 384.919,202.586 384.919,201.441 341.452,207.467 341.452,208.615 "></polygon> </g> <g> <polygon fill="#D6D6D6" points="357.966,217.002 384.919,201.441 368.405,191.906 341.452,207.467 "></polygon> </g> <linearGradient id="SVGID_7_" gradientUnits="userSpaceOnUse" x1="-25.5137" y1="192.8467" x2="6.6333" y2="192.8467" gradientTransform="matrix(-1 0 0 1 340.082 0)"> <stop offset="0" style="stop-color:#FFE2C4"></stop> <stop offset="1" style="stop-color:#FFB870"></stop> </linearGradient> <path fill="url(#SVGID_7_)" d="M365.228,202.836c-1.145-0.08-2.439,0.199-4.443,0.232c-2.01,0.041-1.932-1.094-2.012-2.713 c-0.633,0.471-1.018,1.734-2.039,2.475c-1.021,0.744-1.51,0-1.51,0l-0.213,0.164c-7.264-1.285-13.793-6.994-14.943-8.719 c-1.18-1.77,0.475-9.095,0.756-13.921c0,0-1.102-4.306-4.99-2.106c-3.885,2.199-1.854,17.944-1.854,19.713 c0,1.768,14.424,8.137,21.234,8.756c1.15,0.664,2.549,1.27,3.924,1.354C365.007,207.959,366.366,202.914,365.228,202.836z"></path> <path fill="#76E5FF" d="M342.388,173.78c0,0-0.348-5.524-4.232-3.324c-1.996,1.127-4.605,7.894-5.578,13.779 c2.275,1.708,5.469,1.394,8.045,1.894C341.575,184.596,342.835,178.877,342.388,173.78z"></path> <g> <polygon fill="#FFFFFF" points="384.919,182.372 357.966,217.002 357.087,216.535 357.089,197.463 384.042,181.905 "></polygon> </g> <g> <polygon fill="#EFEFEF" points="384.919,201.441 357.966,217.002 357.966,197.934 384.919,182.372 "></polygon> </g> </g> </g> <g> <g> <path fill="#2D2D2D" d="M199.219,342.867c0,0,0.401,3.092,0.123,3.799c-0.279,0.709-1.937,0.563-2.555,0.391 c-2.039-0.58-6.941-3.01-6.815-5.023c0.052-0.822,1.29-0.744,3.287,0.191c1.996,0.936,3.124,0.77,3.382,0.191 C196.898,341.838,199.219,342.867,199.219,342.867z"></path> <path fill="#2D2D2D" d="M217.494,339.555c0,0,0.401,3.096,0.123,3.803c-0.279,0.709-1.937,0.557-2.558,0.385 c-2.036-0.578-6.937-3.006-6.812-5.021c0.051-0.824,1.289-0.744,3.287,0.189c1.996,0.939,3.124,0.775,3.382,0.193 C215.173,338.525,217.494,339.555,217.494,339.555z"></path> <g> <linearGradient id="SVGID_8_" gradientUnits="userSpaceOnUse" x1="109.9712" y1="259.3564" x2="119.6567" y2="259.3564" gradientTransform="matrix(-1 0 0 1 340.082 0)"> <stop offset="0" style="stop-color:#FFB870"></stop> <stop offset="1" style="stop-color:#FFE2C4"></stop> </linearGradient> <path fill="url(#SVGID_8_)" d="M225.27,248.377c0,0,4.327,4.57,4.841,20.287c-0.86,3.014-8.32,1.287-9.265-0.008 c-0.946-1.281,0-4.035,0-4.035h3.782l-1.145-7.557L225.27,248.377z"></path> <path fill="#DB0B8C" d="M223.483,257.064l1.787-9.506c0,0,4.162,3.086,5.435,13.918c-1.802,1.195-3.998,1.752-6.249,2.021 L223.483,257.064z"></path> <g> <g> <path fill="#0B0059" d="M218.088,339.639c0.188-2.734,1.645-28.045,1.735-28.883c0.84-7.836,2.848-14.779,3.276-16.439 c1.549-6.066,1.348-13.799,1.348-13.799l-14.156,0.594c0,0,1.004,12.172,0.852,27.311 c-0.026,2.836,2.479,28.328,2.504,31.092L218.088,339.639z"></path> </g> <g> <path fill="#160470" d="M205.16,312.82c1.208-2.822,6.513-13.361,7.727-16.021c5.686-10.736,4.829-15.586,4.829-15.586 l-17.69-0.695c0,0-1.707,25.863-3.083,31.43c-0.222,0.887-0.93,30.354-1.118,31.084l3.605,0.344L205.16,312.82z"></path> </g> <rect x="187.259" y="238.998" transform="matrix(0.8707 -0.4918 0.4918 0.8707 -98.0652 129.0639)" fill="#E8E8E8" width="18.319" height="24.064"></rect> <g> <rect x="184.7" y="242.098" transform="matrix(-0.4919 -0.8707 0.8707 -0.4919 74.5022 545.4144)" fill="#574AD8" width="23.402" height="17.74"></rect> </g> <g> <polygon fill="#F6F5FB" points="184.837,245.967 194.711,263.447 207.965,255.965 198.088,238.484 "></polygon> </g> <linearGradient id="SVGID_9_" gradientUnits="userSpaceOnUse" x1="421.8154" y1="237.9551" x2="435.4873" y2="237.9551" gradientTransform="matrix(1 0 0 1 -217.5742 0)"> <stop offset="0" style="stop-color:#FFE2C4"></stop> <stop offset="1" style="stop-color:#FFB870"></stop> </linearGradient> <path fill="url(#SVGID_9_)" d="M209,229.377c0,0-2.829-0.115-4.004,3.107c-0.167,0.455-0.223,0.957-0.094,1.428 c0.249,0.889-0.104,2.254-0.471,3.26c-0.689,1.875,0.633,5.102,1.878,6.674c1.523,0.553,2.663-0.604,2.663-0.604 l0.958,3.383l7.531-1.918c0,0-0.905-2.691,0-6.844c0.907-4.152,0.57-6.229-2.139-7.613 C212.612,228.867,209,229.377,209,229.377"></path> <g> <path fill="#1C0687" d="M206.172,224.322c0,0,1.985,1.334,8.078,1.768c6.096,0.426,6.299,4.646,5.473,6.797 c1.805,0.674-2.084,7.275-2.081,9.846c-3.46,1.227-6.12-0.373-6.12-0.373s-1.239-2.029-0.468-4.307 c0.77-2.277-0.658-4.492-1.562-3.875c-0.196,0.135-0.476,3.742-0.628,3.775c-0.091,0.025-0.372,0.021-0.449,0 c-0.272-0.059,0.074-0.979-0.213-2.537c-0.136-0.74-1.112-2.307-1.066-2.725c0.066-0.578,0.698-2.203,0.698-2.203 l-1.308-0.215c0,0-1.443,0.145-1.431-1.236C205.123,226.557,206.172,224.322,206.172,224.322"></path> </g> <path fill="#E81C91" d="M199.448,252.715c0,0,3.34-3.941,10.323-6.541c3.303-1.234,6.981-1.65,6.981-1.65 s5.688-0.893,9.698,4.369c1.153,1.514,2.751,5.57,0.474,11.242c-2.275,5.666-1.654,12.668-2.048,15.514 c-0.499,3.602,0.394,13.414,0.394,13.414s-0.211,0.754-5.289,1.736l-2.654,0.514c-5.268,0.664-10.337,1.09-17.885-2.713 c0.745-4.191,1.953-13.172,2.755-17.088C203.002,267.594,199.448,252.715,199.448,252.715"></path> <linearGradient id="SVGID_10_" gradientUnits="userSpaceOnUse" x1="133.8838" y1="265.5068" x2="153.063" y2="265.5068" gradientTransform="matrix(-1 0 0 1 340.082 0)"> <stop offset="0" style="stop-color:#FFB870"></stop> <stop offset="1" style="stop-color:#FFE2C4"></stop> </linearGradient> <path fill="url(#SVGID_10_)" d="M187.657,254.086l2.646,4.688c0,0,0.142-1.348,1.183-2.479 c1.044-1.139,1.61,0.141,1.28,0.615c-0.33,0.469-0.855,1.23-0.608,2.559c0.249,1.322,0,3.463,0,3.463 s-0.029,0.211-0.11,0.494c0,0,5.382,11.607,6.856,10.311c1.927-1.688,2.212-6.701,0.987-10.289l-0.424-2.529 c-0.9-2.639-1.82-6.504,0.203-8.422c0.42-0.4,0.899-0.75,1.446-1.02c3.275-1.609,4.916,1.078,5.044,7.029 c0.131,5.943,0.119,14.705-3.308,20.229c-2.095,3.176-9.688,1.029-14.001-14.23c0-0.002,0.006-0.006,0.009-0.008 C185.606,258.541,187.657,254.086,187.657,254.086z"></path> <path fill="#F431A1" d="M199.67,252.496c0.363-0.455,0.899-0.75,1.446-1.02c3.275-1.609,5.53,1.15,5.655,7.1 c0.048,2.158-0.007,4.68-0.256,7.281c-2.365,0.102-5.694,0.148-8.188,0.154c-0.232-2.035,0.116-4.863-0.042-6.654 C197.934,255.318,198.422,254.047,199.67,252.496z"></path> </g> </g> </g> </g> <g> <g opacity="0.4"> <polygon fill="#B8E1FF" points="78.15,247.877 102.554,281.053 101.448,281.053 76.991,247.803 104.052,219.066 76.865,195.49 97.827,179.208 82.751,156.034 82.608,155.812 93.039,136.573 93.821,136.999 83.645,155.768 99.023,179.412 78.271,195.529 105.337,218.998 "></polygon> </g> <g> <polygon fill="#E3F4FF" points="101.482,176.177 106.703,184.164 97.175,184.692 91.954,176.706 "></polygon> <polygon fill="#A4DCFF" points="105.172,168.862 110.401,176.851 106.703,184.164 101.479,176.171 "></polygon> <polygon fill="#77CFF2" points="105.177,168.865 95.645,169.393 91.948,176.706 101.482,176.174 "></polygon> </g> <g> <polygon fill="#E3F4FF" points="94.283,132.13 99.506,140.117 89.979,140.648 84.755,132.662 "></polygon> <polygon fill="#A4DCFF" points="97.975,124.814 103.203,132.806 99.506,140.117 94.28,132.127 "></polygon> <polygon fill="#77CFF2" points="97.981,124.814 88.447,125.345 84.749,132.659 94.283,132.13 "></polygon> </g> <g> <polygon fill="#E3F4FF" points="82.197,157.146 91.734,157.455 86.696,165.561 77.158,165.25 "></polygon> <polygon fill="#A4DCFF" points="78.329,149.919 87.876,150.235 91.734,157.455 82.191,157.146 "></polygon> <polygon fill="#77CFF2" points="78.335,149.919 73.29,158.026 77.153,165.253 82.197,157.143 "></polygon> </g> <g> <polygon fill="#E3F4FF" points="103.263,218.359 112.799,218.672 107.76,226.775 98.223,226.463 "></polygon> <polygon fill="#A4DCFF" points="99.394,211.135 108.938,211.445 112.799,218.672 103.253,218.359 "></polygon> <polygon fill="#77CFF2" points="99.398,211.133 94.354,219.24 98.216,226.465 103.26,218.357 "></polygon> </g> <g> <polygon fill="#E3F4FF" points="77.935,247.764 87.476,248.078 82.435,256.178 72.898,255.867 "></polygon> <polygon fill="#A4DCFF" points="74.067,240.539 83.612,240.852 87.476,248.078 77.929,247.766 "></polygon> <polygon fill="#77CFF2" points="74.073,240.537 69.03,248.643 72.892,255.869 77.935,247.764 "></polygon> </g> <g> <polygon fill="#E3F4FF" points="77.35,196.896 83.959,203.775 74.693,206.059 68.084,199.178 "></polygon> <polygon fill="#A4DCFF" points="79.624,189.02 86.238,195.91 83.959,203.775 77.344,196.887 "></polygon> <polygon fill="#77CFF2" points="79.626,189.023 70.358,191.307 68.078,199.178 77.35,196.893 "></polygon> </g> </g> <polygon fill="#D6EAF2" points="269.237,227.371 269.237,277.895 312.157,292.764 322.868,284.553 "></polygon> <g> <g> <g> <g> <polygon fill="#97DFFF" points="269.237,227.371 287.815,216.607 307.534,231.088 288.958,241.855 "></polygon> </g> <g> <polygon fill="#55C3FE" points="288.95,247.215 307.534,236.445 307.534,231.088 288.958,241.855 "></polygon> </g> </g> <g> <g> <polygon fill="#97DFFF" points="288.95,247.213 307.534,236.445 312.171,239.129 293.597,249.893 "></polygon> </g> <g> <polygon fill="#55C3FE" points="293.593,255.252 312.171,244.488 312.171,239.129 293.597,249.893 "></polygon> </g> </g> <g> <g> <polygon fill="#97DFFF" points="293.593,255.262 312.171,244.498 316.812,247.176 298.235,257.943 "></polygon> </g> <g> <polygon fill="#55C3FE" points="298.231,263.303 316.812,252.535 316.812,247.176 298.235,257.943 "></polygon> </g> </g> <g> <g> <polygon fill="#97DFFF" points="298.231,263.313 316.812,252.545 321.456,255.227 302.878,265.99 "></polygon> </g> <g> <polygon fill="#55C3FE" points="302.874,271.352 321.456,260.588 321.456,255.227 302.878,265.99 "></polygon> </g> </g> <g> <g> <polygon fill="#97DFFF" points="302.874,271.359 321.456,260.596 326.095,263.277 307.519,274.041 "></polygon> </g> <g> <polygon fill="#55C3FE" points="307.517,279.398 326.095,268.639 326.095,263.277 307.519,274.041 "></polygon> </g> </g> <g> <g> <polygon fill="#97DFFF" points="307.517,279.412 326.095,268.646 330.735,271.326 312.159,282.09 "></polygon> </g> <g> <polygon fill="#55C3FE" points="312.157,287.449 330.735,276.686 330.735,271.326 312.159,282.09 "></polygon> </g> </g> <g> <g> <polygon fill="#97DFFF" points="312.157,287.459 330.735,276.695 335.376,279.375 316.8,290.135 "></polygon> </g> <g> <polygon fill="#55C3FE" points="316.798,295.498 335.376,284.732 335.376,279.375 316.8,290.135 "></polygon> </g> </g> </g> <g> <polygon fill="#35AFE5" points="307.517,279.365 307.517,274.008 302.872,271.326 302.872,265.926 298.241,263.293 298.241,257.934 293.597,255.252 293.597,249.896 288.958,247.215 288.958,241.855 269.237,227.371 269.237,227.371 312.157,292.764 316.81,295.443 316.81,290.086 312.157,287.449 312.157,282.047 "></polygon> </g> </g> </g> </g> </g> </g> </g> </g> <g id="DESIGNED_BY_FREEPIK"> </g> </svg> 